<svg width="201" height="209" viewBox="0 0 201 209" fill="none" xmlns="http://www.w3.org/2000/svg">
<path d="M105.398 48.8909C118.899 48.8909 129.844 37.9463 129.844 24.4455C129.844 10.9446 118.899 0 105.398 0C91.8962 0 80.9512 10.9446 80.9512 24.4455C80.9512 37.9463 91.8962 48.8909 105.398 48.8909Z" fill="#F9B81F"/>
<path d="M105.401 209.001C113.501 209.001 120.067 202.435 120.067 194.335C120.067 186.235 113.501 179.669 105.401 179.669C97.3007 179.669 90.7344 186.235 90.7344 194.335C90.7344 202.435 97.3007 209.001 105.401 209.001Z" fill="#FFE8B4"/>
<path d="M45.3315 71.3224C57.4836 71.3224 67.3348 61.4715 67.3348 49.3199C67.3348 37.1682 57.4836 27.3174 45.3315 27.3174C33.1794 27.3174 23.3281 37.1682 23.3281 49.3199C23.3281 61.4715 33.1794 71.3224 45.3315 71.3224Z" fill="#FFCB50"/>
<path d="M165.468 181.668C172.219 181.668 177.692 176.195 177.692 169.445C177.692 162.694 172.219 157.222 165.468 157.222C158.718 157.222 153.245 162.694 153.245 169.445C153.245 176.195 158.718 181.668 165.468 181.668Z" fill="#FFEDC4"/>
<path d="M20.4479 128.945C31.2463 128.945 40.0002 120.191 40.0002 109.393C40.0002 98.5951 31.2463 89.8416 20.4479 89.8416C9.6494 89.8416 0.895508 98.5951 0.895508 109.393C0.895508 120.191 9.6494 128.945 20.4479 128.945Z" fill="#FFD779"/>
<path d="M190.345 119.158C195.743 119.158 200.118 114.783 200.118 109.387C200.118 103.99 195.743 99.6147 190.345 99.6147C184.948 99.6147 180.573 103.99 180.573 109.387C180.573 114.783 184.948 119.158 190.345 119.158Z" fill="#FFEDC3" fill-opacity="0.65"/>
<path d="M33.2308 157.365C26.5442 164.052 26.5442 174.871 33.2308 181.557C39.9096 188.243 50.7447 188.243 57.4234 181.557C64.1101 174.871 64.1101 164.052 57.4234 157.365C50.7447 150.671 39.9175 150.608 33.2308 157.365Z" fill="#FFDC8A"/>
<path d="M165.462 56.6478C169.51 56.6478 172.791 53.3665 172.791 49.3189C172.791 45.2712 169.51 41.99 165.462 41.99C161.414 41.99 158.133 45.2712 158.133 49.3189C158.133 53.3665 161.414 56.6478 165.462 56.6478Z" fill="#A39784" fill-opacity="0.78"/>
</svg>
